<svg width="208" height="34" viewBox="0 0 208 34" fill="none" xmlns="http://www.w3.org/2000/svg">
<path d="M41.2042 17C41.2042 12.4914 39.4677 8.16731 36.3766 4.97919C33.2856 1.79107 29.0933 5.91243e-07 24.722 0C20.3506 -5.91242e-07 16.1583 1.79107 13.0673 4.97919C9.97626 8.16731 8.23975 12.4914 8.23975 17H13.3905C15.0973 17 16.4284 15.5248 17.0536 13.8866C17.464 12.8112 18.0869 11.8228 18.8946 10.9896C20.4401 9.39554 22.5363 8.50001 24.722 8.50001C26.9076 8.50001 29.0038 9.39554 30.5493 10.9896C32.0949 12.5836 32.963 14.7457 32.963 17H41.2042Z" fill="url(#paint0_linear_233_3423)"/>
<path d="M31.7097 23.5056C32.538 21.443 32.9644 19.2324 32.9644 17H41.2046C41.2046 26.3888 33.8252 33.9999 24.7224 33.9999C23.2968 33.9999 21.9134 33.8133 20.5942 33.4624C21.3406 33.264 22.0743 33.0114 22.7896 32.7059C24.7893 31.8516 26.6063 30.5994 28.1368 29.0208C29.6673 27.4422 30.8815 25.5681 31.7097 23.5056Z" fill="#FBCF8E"/>
<path d="M0 17C-3.09647e-07 19.2325 0.426325 21.4431 1.25463 23.5057C2.08295 25.5682 3.29701 27.4423 4.82753 29.0209C6.35804 30.5994 8.17503 31.8517 10.1747 32.706C12.1744 33.5604 14.3177 34 16.4822 34C18.6467 34 20.7899 33.5604 22.7897 32.706C24.7894 31.8517 26.6064 30.5994 28.1369 29.0209C29.6674 27.4423 30.8814 25.5682 31.7098 23.5057C32.5381 21.4431 32.9645 19.2325 32.9645 17H27.8137C26.1069 17 24.7758 18.4753 24.1506 20.1133C24.1329 20.16 24.1146 20.2064 24.096 20.2529C23.6818 21.2841 23.0748 22.2212 22.3095 23.0105C21.5443 23.7997 20.6358 24.4259 19.6359 24.8531C18.6361 25.2802 17.5645 25.5001 16.4822 25.5001C15.4 25.5001 14.3283 25.2802 13.3285 24.8531C12.3286 24.4259 11.4202 23.7997 10.6549 23.0105C9.88961 22.2212 9.28258 21.2841 8.86843 20.2529C8.45427 19.2216 8.24111 18.1163 8.24111 17H0Z" fill="url(#paint1_linear_233_3423)"/>
<path d="M0.00146484 17C0.00146484 7.61114 7.38078 0 16.4836 0C17.9088 0 19.2918 0.186569 20.6109 0.537335C17.7805 1.28938 15.1695 2.81131 13.0676 4.9792C9.97656 8.16729 8.24007 12.4914 8.24007 17H0.00146484Z" fill="#73E5E2"/>
<path d="M204.24 13.6478V23.0111H201.053V11.0358H204.052L204.24 13.6478ZM207.848 10.9583L207.793 13.9134C207.638 13.8913 207.45 13.8728 207.229 13.8581C207.015 13.8359 206.819 13.8249 206.642 13.8249C206.192 13.8249 205.801 13.8839 205.469 14.002C205.144 14.1126 204.871 14.2786 204.65 14.5C204.436 14.7214 204.273 14.9907 204.163 15.3079C204.059 15.6252 204 15.9868 203.986 16.3926L203.344 16.1934C203.344 15.4186 203.421 14.7066 203.576 14.0573C203.731 13.4006 203.956 12.8288 204.251 12.3418C204.554 11.8548 204.923 11.4785 205.358 11.2129C205.793 10.9473 206.291 10.8145 206.852 10.8145C207.029 10.8145 207.21 10.8292 207.395 10.8587C207.579 10.8809 207.73 10.9141 207.848 10.9583Z" fill="#2B2B2B"/>
<path d="M194.111 23.2324C193.181 23.2324 192.347 23.0848 191.609 22.7897C190.871 22.4872 190.244 22.0703 189.728 21.5391C189.219 21.0078 188.828 20.3917 188.555 19.6908C188.282 18.9824 188.145 18.2298 188.145 17.4329V16.9902C188.145 16.0827 188.274 15.2526 188.532 14.5C188.791 13.7474 189.16 13.0944 189.639 12.541C190.126 11.9876 190.716 11.5634 191.41 11.2682C192.104 10.9657 192.886 10.8145 193.756 10.8145C194.605 10.8145 195.357 10.9546 196.014 11.235C196.671 11.5154 197.221 11.9138 197.663 12.4303C198.113 12.9468 198.453 13.5666 198.681 14.2897C198.91 15.0054 199.025 15.8023 199.025 16.6803V18.0085H189.506V15.8835H195.892V15.64C195.892 15.1973 195.811 14.8025 195.649 14.4557C195.494 14.1016 195.258 13.8212 194.941 13.6146C194.623 13.408 194.217 13.3047 193.723 13.3047C193.303 13.3047 192.941 13.3969 192.639 13.5814C192.336 13.7658 192.089 14.0241 191.897 14.3561C191.713 14.6881 191.572 15.0792 191.476 15.5293C191.388 15.972 191.344 16.459 191.344 16.9902V17.4329C191.344 17.9125 191.41 18.3552 191.543 18.7611C191.683 19.1669 191.879 19.5174 192.129 19.8125C192.388 20.1076 192.698 20.3364 193.059 20.4987C193.428 20.661 193.845 20.7422 194.31 20.7422C194.885 20.7422 195.42 20.6315 195.915 20.4102C196.416 20.1814 196.848 19.8383 197.209 19.3809L198.759 21.0631C198.508 21.4247 198.165 21.7715 197.73 22.1035C197.302 22.4355 196.785 22.7085 196.18 22.9225C195.575 23.1291 194.885 23.2324 194.111 23.2324Z" fill="#2B2B2B"/>
<path d="M179.688 6V23.0111H176.5V6H179.688ZM187.236 11.0358L182.034 16.9681L179.245 19.7904L178.083 17.4883L180.297 14.6771L183.407 11.0358H187.236ZM183.927 23.0111L180.385 17.4772L182.588 15.5514L187.601 23.0111H183.927Z" fill="#2B2B2B"/>
<path d="M169.414 20.7422C169.805 20.7422 170.152 20.6684 170.455 20.5208C170.757 20.3659 170.993 20.1519 171.163 19.8789C171.34 19.5985 171.432 19.2702 171.44 18.8939H174.439C174.432 19.735 174.207 20.4839 173.764 21.1406C173.321 21.7899 172.727 22.3027 171.982 22.679C171.237 23.048 170.403 23.2324 169.481 23.2324C168.551 23.2324 167.739 23.0775 167.046 22.7676C166.36 22.4577 165.788 22.0297 165.33 21.4837C164.873 20.9303 164.53 20.2884 164.301 19.5579C164.072 18.8201 163.958 18.0306 163.958 17.1895V16.8685C163.958 16.02 164.072 15.2305 164.301 14.5C164.53 13.7622 164.873 13.1202 165.33 12.5742C165.788 12.0208 166.36 11.5892 167.046 11.2793C167.732 10.9694 168.536 10.8145 169.459 10.8145C170.44 10.8145 171.3 11.0026 172.037 11.3789C172.783 11.7552 173.366 12.2938 173.786 12.9948C174.214 13.6884 174.432 14.5111 174.439 15.4629H171.44C171.432 15.0645 171.348 14.7029 171.185 14.3783C171.03 14.0536 170.802 13.7954 170.499 13.6035C170.204 13.4043 169.839 13.3047 169.403 13.3047C168.938 13.3047 168.558 13.4043 168.263 13.6035C167.968 13.7954 167.739 14.061 167.577 14.4004C167.415 14.7324 167.3 15.1124 167.234 15.5404C167.175 15.9609 167.146 16.4036 167.146 16.8685V17.1895C167.146 17.6543 167.175 18.1007 167.234 18.5286C167.293 18.9566 167.404 19.3366 167.566 19.6686C167.736 20.0006 167.968 20.2626 168.263 20.4544C168.558 20.6463 168.942 20.7422 169.414 20.7422Z" fill="#2B2B2B"/>
<path d="M158.587 20.3105V14.9759C158.587 14.5922 158.525 14.2639 158.399 13.9909C158.274 13.7105 158.078 13.4928 157.813 13.3379C157.554 13.1829 157.219 13.1055 156.805 13.1055C156.451 13.1055 156.145 13.1682 155.887 13.2936C155.629 13.4117 155.429 13.5851 155.289 13.8138C155.149 14.0352 155.079 14.2971 155.079 14.5996H151.891C151.891 14.0905 152.009 13.6072 152.246 13.1497C152.482 12.6923 152.825 12.2901 153.275 11.9434C153.725 11.5892 154.26 11.3125 154.88 11.1133C155.507 10.9141 156.208 10.8145 156.983 10.8145C157.912 10.8145 158.739 10.9694 159.462 11.2793C160.185 11.5892 160.753 12.054 161.166 12.6738C161.587 13.2936 161.797 14.0684 161.797 14.998V20.1224C161.797 20.7791 161.838 21.3177 161.919 21.7383C162 22.1515 162.118 22.513 162.273 22.8229V23.0111H159.052C158.897 22.6864 158.779 22.2806 158.698 21.7936C158.624 21.2993 158.587 20.8049 158.587 20.3105ZM159.008 15.7174L159.03 17.5215H157.248C156.828 17.5215 156.462 17.5694 156.153 17.6654C155.843 17.7613 155.588 17.8978 155.389 18.0749C155.19 18.2446 155.042 18.4438 154.946 18.6725C154.858 18.9013 154.813 19.1521 154.813 19.4251C154.813 19.6981 154.876 19.9453 155.001 20.1667C155.127 20.3806 155.308 20.5503 155.544 20.6758C155.78 20.7938 156.057 20.8529 156.374 20.8529C156.853 20.8529 157.27 20.7569 157.625 20.5651C157.979 20.3733 158.252 20.1371 158.444 19.8568C158.643 19.5764 158.746 19.3108 158.753 19.0599L159.595 20.4102C159.477 20.7127 159.314 21.0263 159.108 21.3509C158.908 21.6756 158.654 21.9818 158.344 22.2695C158.034 22.5499 157.661 22.7823 157.226 22.9668C156.791 23.1439 156.274 23.2324 155.677 23.2324C154.917 23.2324 154.227 23.0812 153.607 22.7786C152.995 22.4687 152.508 22.0445 152.146 21.5059C151.792 20.9598 151.615 20.3401 151.615 19.6465C151.615 19.0193 151.733 18.4622 151.969 17.9753C152.205 17.4883 152.552 17.0788 153.009 16.7467C153.474 16.4073 154.053 16.1528 154.747 15.9831C155.44 15.806 156.245 15.7174 157.16 15.7174H159.008Z" fill="#2B2B2B"/>
<path d="M147.175 13.6478V23.0111H143.988V11.0358H146.987L147.175 13.6478ZM150.783 10.9583L150.728 13.9134C150.573 13.8913 150.385 13.8728 150.164 13.8581C149.95 13.8359 149.754 13.8249 149.577 13.8249C149.127 13.8249 148.736 13.8839 148.404 14.002C148.079 14.1126 147.806 14.2786 147.585 14.5C147.371 14.7214 147.208 14.9907 147.098 15.3079C146.995 15.6252 146.935 15.9868 146.921 16.3926L146.279 16.1934C146.279 15.4186 146.356 14.7066 146.511 14.0573C146.666 13.4006 146.891 12.8288 147.186 12.3418C147.489 11.8548 147.858 11.4785 148.293 11.2129C148.728 10.9473 149.227 10.8145 149.787 10.8145C149.964 10.8145 150.145 10.8292 150.33 10.8587C150.514 10.8809 150.665 10.9141 150.783 10.9583Z" fill="#2B2B2B"/>
<path d="M137.898 6.89648V23.0111H134.588V6.89648H137.898ZM142.856 6.89648V9.49739H129.708V6.89648H142.856Z" fill="#2B2B2B"/>
<path d="M123.207 11.0359V13.2937H116.234V11.0359H123.207ZM117.96 8.08081H121.148V19.4031C121.148 19.7499 121.192 20.0155 121.281 20.1999C121.377 20.3844 121.517 20.5135 121.701 20.5873C121.886 20.6537 122.118 20.6869 122.399 20.6869C122.598 20.6869 122.775 20.6795 122.93 20.6648C123.092 20.6427 123.229 20.6205 123.339 20.5984L123.35 22.9447C123.077 23.0333 122.782 23.1034 122.465 23.155C122.148 23.2067 121.797 23.2325 121.414 23.2325C120.713 23.2325 120.1 23.1181 119.576 22.8894C119.06 22.6533 118.661 22.277 118.381 21.7605C118.101 21.244 117.96 20.5652 117.96 19.724V8.08081Z" fill="#2B2B2B"/>
<path d="M110.399 23.2324C109.469 23.2324 108.635 23.0848 107.897 22.7897C107.159 22.4872 106.532 22.0703 106.016 21.5391C105.507 21.0078 105.116 20.3917 104.843 19.6908C104.57 18.9824 104.433 18.2298 104.433 17.4329V16.9902C104.433 16.0827 104.562 15.2526 104.82 14.5C105.079 13.7474 105.448 13.0944 105.927 12.541C106.414 11.9876 107.005 11.5634 107.698 11.2682C108.392 10.9657 109.174 10.8145 110.044 10.8145C110.893 10.8145 111.646 10.9546 112.302 11.235C112.959 11.5154 113.509 11.9138 113.951 12.4303C114.401 12.9468 114.741 13.5666 114.97 14.2897C115.198 15.0054 115.313 15.8023 115.313 16.6803V18.0085H105.794V15.8835H112.18V15.64C112.18 15.1973 112.099 14.8025 111.937 14.4557C111.782 14.1016 111.546 13.8212 111.229 13.6146C110.911 13.408 110.506 13.3047 110.011 13.3047C109.591 13.3047 109.229 13.3969 108.927 13.5814C108.624 13.7658 108.377 14.0241 108.185 14.3561C108.001 14.6881 107.86 15.0792 107.764 15.5293C107.676 15.972 107.632 16.459 107.632 16.9902V17.4329C107.632 17.9125 107.698 18.3552 107.831 18.7611C107.971 19.1669 108.167 19.5174 108.417 19.8125C108.676 20.1076 108.986 20.3364 109.347 20.4987C109.716 20.661 110.133 20.7422 110.598 20.7422C111.173 20.7422 111.708 20.6315 112.203 20.4102C112.704 20.1814 113.136 19.8383 113.498 19.3809L115.047 21.0631C114.796 21.4247 114.453 21.7715 114.018 22.1035C113.59 22.4355 113.073 22.7085 112.468 22.9225C111.863 23.1291 111.173 23.2324 110.399 23.2324Z" fill="#2B2B2B"/>
<path d="M99.3073 11.0358H102.196V22.6126C102.196 23.7046 101.952 24.6306 101.465 25.3906C100.986 26.158 100.314 26.7372 99.4512 27.1282C98.5879 27.5267 97.5844 27.7259 96.4408 27.7259C95.939 27.7259 95.4078 27.6595 94.847 27.5267C94.2936 27.3939 93.7624 27.1873 93.2533 26.9069C92.7515 26.6265 92.3309 26.2723 91.9915 25.8444L93.3971 23.9629C93.7661 24.3908 94.194 24.7229 94.681 24.959C95.168 25.2025 95.7066 25.3242 96.2969 25.3242C96.8724 25.3242 97.3594 25.2172 97.7578 25.0032C98.1562 24.7967 98.4625 24.4904 98.6764 24.0846C98.8904 23.6862 98.9974 23.2029 98.9974 22.6348V13.8027L99.3073 11.0358ZM91.25 17.1673V16.9349C91.25 16.02 91.3607 15.1899 91.582 14.4447C91.8108 13.6921 92.1317 13.0464 92.5449 12.5078C92.9655 11.9692 93.4746 11.5523 94.0723 11.2572C94.6699 10.962 95.3451 10.8145 96.0977 10.8145C96.8945 10.8145 97.5623 10.962 98.1009 11.2572C98.6395 11.5523 99.0822 11.9729 99.429 12.5189C99.7758 13.0575 100.045 13.6957 100.237 14.4336C100.436 15.1641 100.591 15.9646 100.702 16.8353V17.3444C100.591 18.1782 100.425 18.9529 100.204 19.6686C99.9824 20.3843 99.691 21.0115 99.3294 21.5501C98.9679 22.0814 98.5178 22.4946 97.9792 22.7897C97.4479 23.0848 96.8134 23.2324 96.0755 23.2324C95.3377 23.2324 94.6699 23.0812 94.0723 22.7786C93.482 22.4761 92.9766 22.0519 92.556 21.5059C92.1354 20.9598 91.8108 20.3179 91.582 19.5801C91.3607 18.8422 91.25 18.038 91.25 17.1673ZM94.4375 16.9349V17.1673C94.4375 17.6617 94.4855 18.1228 94.5814 18.5508C94.6773 18.9787 94.8249 19.3587 95.0241 19.6908C95.2307 20.0154 95.4852 20.27 95.7878 20.4544C96.0977 20.6315 96.4629 20.72 96.8835 20.72C97.4664 20.72 97.9423 20.5983 98.3112 20.3548C98.6801 20.1039 98.9568 19.7608 99.1413 19.3255C99.3257 18.8902 99.4327 18.3885 99.4622 17.8203V16.3704C99.4475 15.9056 99.3848 15.4887 99.2741 15.1198C99.1634 14.7435 99.0085 14.4225 98.8092 14.1569C98.61 13.8913 98.3518 13.6847 98.0345 13.5371C97.7172 13.3895 97.3409 13.3158 96.9056 13.3158C96.485 13.3158 96.1198 13.4117 95.8099 13.6035C95.5074 13.788 95.2528 14.0425 95.0462 14.3672C94.847 14.6918 94.6957 15.0755 94.5924 15.5182C94.4891 15.9536 94.4375 16.4258 94.4375 16.9349Z" fill="#2B2B2B"/>
<path d="M85.813 20.399V6.01099H89.0226V23.011H86.1339L85.813 20.399ZM78.2427 17.1672V16.9348C78.2427 16.0199 78.346 15.1898 78.5526 14.4446C78.7592 13.692 79.0617 13.0464 79.4601 12.5077C79.8586 11.9691 80.3492 11.5522 80.9321 11.2571C81.515 10.9619 82.1791 10.8144 82.9243 10.8144C83.6253 10.8144 84.2377 10.9619 84.7616 11.2571C85.2928 11.5522 85.7429 11.9728 86.1118 12.5188C86.4881 13.0574 86.7906 13.6957 87.0194 14.4335C87.2481 15.164 87.4141 15.9645 87.5174 16.8352V17.3443C87.4141 18.1781 87.2481 18.9528 87.0194 19.6685C86.7906 20.3842 86.4881 21.0114 86.1118 21.55C85.7429 22.0813 85.2928 22.4945 84.7616 22.7896C84.2303 23.0848 83.6105 23.2323 82.9022 23.2323C82.157 23.2323 81.4929 23.0811 80.91 22.7786C80.3345 22.476 79.8475 22.0518 79.4491 21.5058C79.058 20.9598 78.7592 20.3178 78.5526 19.58C78.346 18.8421 78.2427 18.0379 78.2427 17.1672ZM81.4302 16.9348V17.1672C81.4302 17.6616 81.4671 18.1227 81.5409 18.5507C81.622 18.9786 81.7511 19.3586 81.9282 19.6907C82.1127 20.0153 82.3488 20.2699 82.6366 20.4543C82.9317 20.6314 83.2895 20.72 83.7101 20.72C84.2561 20.72 84.7062 20.5982 85.0604 20.3547C85.4145 20.1039 85.6839 19.7608 85.8683 19.3254C86.0602 18.8901 86.1708 18.3884 86.2004 17.8202V16.3704C86.1782 15.9055 86.1118 15.4886 86.0011 15.1197C85.8978 14.7434 85.7429 14.4224 85.5363 14.1568C85.3371 13.8912 85.0862 13.6846 84.7837 13.537C84.4885 13.3895 84.1381 13.3157 83.7323 13.3157C83.3191 13.3157 82.9649 13.4116 82.6698 13.6034C82.3746 13.7879 82.1348 14.0424 81.9504 14.3671C81.7733 14.6918 81.6405 15.0754 81.5519 15.5181C81.4708 15.9535 81.4302 16.4257 81.4302 16.9348Z" fill="#2B2B2B"/>
<path d="M72.9067 20.1446V11.0359H76.0942V23.0111H73.0949L72.9067 20.1446ZM73.2609 17.6876L74.2017 17.6654C74.2017 18.4623 74.1094 19.2039 73.925 19.8901C73.7405 20.5689 73.4638 21.1591 73.0949 21.6609C72.726 22.1552 72.2611 22.5426 71.7004 22.823C71.1396 23.096 70.4792 23.2325 69.7192 23.2325C69.1363 23.2325 68.5977 23.1513 68.1034 22.989C67.6164 22.8193 67.1958 22.5574 66.8416 22.2032C66.4948 21.8417 66.2218 21.3805 66.0226 20.8197C65.8308 20.2516 65.7349 19.5691 65.7349 18.7722V11.0359H68.9224V18.7943C68.9224 19.1485 68.9629 19.4473 69.0441 19.6908C69.1326 19.9343 69.2544 20.1335 69.4093 20.2885C69.5643 20.4434 69.7451 20.5541 69.9517 20.6205C70.1656 20.6869 70.4017 20.7201 70.66 20.7201C71.3167 20.7201 71.8332 20.5873 72.2095 20.3217C72.5932 20.0561 72.8625 19.6945 73.0174 19.2371C73.1797 18.7722 73.2609 18.2557 73.2609 17.6876Z" fill="#2B2B2B"/>
<path d="M57.6416 15.9388H53.5023L53.4801 13.6589H56.9554C57.5678 13.6589 58.0696 13.5814 58.4606 13.4264C58.8517 13.2641 59.1431 13.0317 59.335 12.7292C59.5342 12.4193 59.6338 12.043 59.6338 11.6003C59.6338 11.0985 59.5379 10.6927 59.346 10.3828C59.1616 10.0729 58.8701 9.84787 58.4717 9.70768C58.0806 9.56749 57.5752 9.49739 56.9554 9.49739H54.6533V23.0111H51.333V6.89648H56.9554C57.8925 6.89648 58.7299 6.98503 59.4678 7.16211C60.213 7.33919 60.8439 7.60851 61.3603 7.97005C61.8768 8.3316 62.2716 8.78906 62.5446 9.34245C62.8176 9.88845 62.9541 10.5378 62.9541 11.2904C62.9541 11.9544 62.8028 12.5668 62.5003 13.1276C62.2052 13.6884 61.7366 14.1458 61.0947 14.5C60.4602 14.8542 59.6301 15.0497 58.6045 15.0866L57.6416 15.9388ZM57.4977 23.0111H52.5947L53.8896 20.4212H57.4977C58.0806 20.4212 58.5565 20.329 58.9255 20.1445C59.2944 19.9527 59.5674 19.6944 59.7445 19.3698C59.9215 19.0451 60.0101 18.6725 60.0101 18.2519C60.0101 17.7797 59.9289 17.3702 59.7666 17.0234C59.6117 16.6766 59.3608 16.411 59.014 16.2266C58.6672 16.0347 58.2097 15.9388 57.6416 15.9388H54.443L54.4652 13.6589H58.4495L59.2132 14.5553C60.1945 14.5406 60.984 14.714 61.5817 15.0755C62.1867 15.4297 62.6258 15.8908 62.8988 16.459C63.1791 17.0271 63.3193 17.6358 63.3193 18.2852C63.3193 19.3181 63.0943 20.1888 62.6442 20.8971C62.1941 21.5981 61.5337 22.1256 60.6631 22.4798C59.7998 22.834 58.7447 23.0111 57.4977 23.0111Z" fill="#2B2B2B"/>
<defs>
<linearGradient id="paint0_linear_233_3423" x1="41.2042" y1="8.50001" x2="8.23975" y2="8.50001" gradientUnits="userSpaceOnUse">
<stop stop-color="#73E5E2"/>
<stop offset="1" stop-color="#394F87"/>
</linearGradient>
<linearGradient id="paint1_linear_233_3423" x1="1.08069e-06" y1="25.5001" x2="32.9645" y2="25.5001" gradientUnits="userSpaceOnUse">
<stop stop-color="#FBDC8E"/>
<stop offset="1" stop-color="#FB958E"/>
</linearGradient>
</defs>
</svg>
